<svg xmlns="http://www.w3.org/2000/svg" width="420" height="132" fill="rgb(238, 238, 250)" viewBox="0 0 420 132"
     class="sc-ec3f087-1 swTfm">
    <path
          d="M0 132h410.114s22.243-28.135 0-47.067c-12.271-10.451-26.766-9.364-37.294-6.295-6.859 2.004-13.697-2.625-15.208-9.61-2.491-11.566-10.175-26.703-32.256-35.65-21.72-8.8-35.46 4.636-43.405 18.445-2.619 4.545-9.576 3.86-11.157-1.136C263.914 28.89 239.921 0 161.09 0 60.822 0 71.964 53.298 80.926 75.456c1.56 3.846-1.736 7.833-5.793 6.965-15.469-3.31-44.175-7.593-57.047 2.512C0 99.13 0 132 0 132Z"></path>
</svg>