<svg xmlns="http://www.w3.org/2000/svg" width="57" height="28" fill="none" data-testid="checkout__adhd__intro__level-diagram__gauge-needle" class="sc-902a24b8-4 jjjRPO"><path fill="#3D3D3D" fill-rule="evenodd" d="M56.072 8.876A11.707 11.707 0 0 0 45.86.806a11.676 11.676 0 0 0-4.535.538C35.18 3.344.42 27.002.42 27.002s41.992-1.34 48.138-3.343a11.694 11.694 0 0 0 6.812-5.831 11.753 11.753 0 0 0 .702-8.952Zm-11.127 9.508a5.842 5.842 0 0 1-3.252-.988 5.88 5.88 0 0 1-.889-9.027 5.848 5.848 0 0 1 6.379-1.272 5.856 5.856 0 0 1 2.627 2.16 5.877 5.877 0 0 1-.728 7.407 5.845 5.845 0 0 1-4.137 1.718v.002Z" clip-rule="evenodd"></path></svg>