<svg xmlns="http://www.w3.org/2000/svg" width="16" height="16" fill="none" class="sc-d9c4021c-1 kBUNYE"><path fill="#111827" d="M8.005 1.442c2.137 0 2.39.01 3.23.047.782.034 1.204.166 1.485.275.372.144.64.319.92.597.28.281.452.547.596.919.11.28.24.706.275 1.484.037.844.047 1.097.047 3.231 0 2.138-.01 2.391-.047 3.232-.034.78-.166 1.203-.275 1.484-.144.372-.319.64-.597.919a2.461 2.461 0 0 1-.919.597c-.28.109-.706.24-1.484.275-.844.037-1.097.046-3.231.046-2.138 0-2.39-.009-3.232-.046-.78-.035-1.203-.166-1.484-.275a2.475 2.475 0 0 1-.919-.597 2.46 2.46 0 0 1-.597-.919c-.109-.281-.24-.706-.275-1.484-.037-.844-.046-1.097-.046-3.232 0-2.137.009-2.39.046-3.231.035-.781.166-1.203.275-1.484.144-.372.32-.641.597-.92a2.46 2.46 0 0 1 .92-.596c.28-.11.705-.24 1.483-.275.841-.037 1.094-.047 3.232-.047zm0-1.44C5.833.002 5.56.01 4.708.048c-.85.038-1.435.175-1.94.372a3.905 3.905 0 0 0-1.42.925 3.92 3.92 0 0 0-.925 1.416C.227 3.27.09 3.85.052 4.7c-.038.857-.047 1.129-.047 3.3 0 2.172.01 2.444.047 3.297.037.85.175 1.435.371 1.941.207.528.479.975.925 1.419.444.444.891.719 1.416.922.51.197 1.09.334 1.94.372.854.037 1.126.046 3.298.046 2.171 0 2.443-.009 3.296-.046.85-.038 1.435-.175 1.941-.372a3.91 3.91 0 0 0 1.416-.922c.443-.444.718-.89.922-1.416.196-.51.334-1.09.372-1.94.037-.854.046-1.125.046-3.297s-.01-2.444-.046-3.297c-.038-.85-.176-1.435-.372-1.94a3.747 3.747 0 0 0-.916-1.423 3.91 3.91 0 0 0-1.416-.922c-.51-.196-1.09-.334-1.94-.371-.857-.041-1.128-.05-3.3-.05z"></path><path fill="#111827" d="M8.005 4.392a4.11 4.11 0 0 0 0 8.219 4.11 4.11 0 0 0 0-8.219zm0 6.775a2.666 2.666 0 1 1 0-5.332 2.666 2.666 0 0 1 0 5.332zM13.236 4.23a.96.96 0 1 1-1.92 0 .96.96 0 0 1 1.92 0z"></path></svg>