<svg xmlns="http://www.w3.org/2000/svg" width="16" height="16" fill="none" class="sc-d9c4021c-1 kBUNYE"><path fill="#000" d="M5.624 15.642c.096-.164.189-.321.28-.48a7.512 7.512 0 0 0 .837-2.085c.105-.456.236-.907.355-1.36l.017-.057c.007.002.012.002.014.004.24.397.61.62 1.034.768.428.15.868.16 1.312.095 1.064-.155 1.9-.693 2.546-1.536.592-.772.908-1.656 1.029-2.614.071-.565.076-1.13-.04-1.691-.248-1.195-.883-2.136-1.887-2.825-.843-.579-1.787-.852-2.804-.879-.818-.021-1.618.087-2.385.38-1.11.422-1.963 1.142-2.517 2.199A4.733 4.733 0 0 0 2.88 7.7a4.085 4.085 0 0 0 .657 2.311c.23.361.52.664.905.865.049.025.1.047.153.062.071.02.124-.008.154-.076.017-.039.027-.08.037-.122l.208-.843a.24.24 0 0 0-.043-.219 2.689 2.689 0 0 1-.534-1.22c-.215-1.214.13-2.26 1.004-3.122.491-.485 1.097-.765 1.775-.888.65-.12 1.298-.101 1.93.102.971.311 1.646.94 1.995 1.903.156.428.205.874.191 1.329a5.59 5.59 0 0 1-.15 1.168 3.856 3.856 0 0 1-.562 1.3c-.29.416-.652.745-1.138.917-.355.127-.72.17-1.087.05-.59-.195-.914-.757-.766-1.362.104-.423.237-.839.36-1.256.111-.374.228-.745.283-1.132.04-.284.034-.566-.08-.835-.177-.418-.572-.634-1.05-.573-.384.05-.673.257-.897.562-.282.386-.397.826-.408 1.297-.01.423.058.832.22 1.225.01.023.008.055.002.082-.188.799-.378 1.597-.565 2.397-.128.543-.26 1.085-.378 1.63-.084.391-.09.79-.076 1.188.012.33.038.658.058.997a7.797 7.797 0 0 1-2.152-1.265C1.512 12.998.587 11.518.19 9.724c-.803-3.64.976-7.301 4.346-8.93a7.993 7.993 0 0 1 9.644 2.12c2.337 2.825 2.434 6.954.224 9.878a8.002 8.002 0 0 1-8.78 2.85z"></path></svg>