<svg xmlns="http://www.w3.org/2000/svg" fill="none" viewBox="0 0 18 18" data-testid="checkout--adhd__testimonials__reviews--Steven D. 30__card__rating__star--4" class="sc-1022ae42-1 knHNsl"><path fill="#F8BD78" stroke="#F8BD78" d="M8.41 1.879a1 1 0 0 1 1.318-.517 1 1 0 0 1 .52.52l1.563 3.6a1 1 0 0 0 .823.6l3.912.373a1 1 0 0 1 .566 1.752l-2.946 2.6a1.001 1.001 0 0 0-.314.967l.85 3.835a1 1 0 0 1-1.484 1.078l-3.384-2a1 1 0 0 0-1.017 0l-3.384 2a1 1 0 0 1-1.483-1.08l.852-3.835a1 1 0 0 0-.314-.967L1.545 8.207a1 1 0 0 1 .567-1.75l3.912-.378a1 1 0 0 0 .823-.6l1.563-3.6Z"></path></svg>