<svg xmlns="http://www.w3.org/2000/svg" width="16" height="16" fill="none" class="sc-d9c4021c-1 kBUNYE"><path fill="#000" d="M8.186 2.413c.85.018 1.857.03 2.864.064.73.026 1.46.075 2.19.126.38.027.763.06 1.124.194.716.265 1.151.776 1.316 1.52.124.561.194 1.13.242 1.704.067.79.088 1.581.074 2.374A20.344 20.344 0 0 1 15.803 11c-.049.332-.092.671-.202.985-.26.74-.804 1.168-1.572 1.31-.545.1-1.098.142-1.65.178-1.474.097-2.95.122-4.427.112a103.22 103.22 0 0 1-2.95-.056 53.185 53.185 0 0 1-2.284-.143c-.334-.026-.675-.06-.996-.15-.771-.222-1.24-.75-1.417-1.532a11.745 11.745 0 0 1-.228-1.659 25.585 25.585 0 0 1-.073-2.477c.012-.721.042-1.441.128-2.157.05-.417.093-.842.205-1.244.225-.808.777-1.301 1.608-1.435.543-.088 1.093-.14 1.642-.179.74-.051 1.482-.083 2.223-.105.74-.022 1.48-.023 2.376-.035zM6.45 5.607V10.4l4.181-2.396-4.181-2.395z"></path></svg>